<?xml version="1.0" encoding="UTF-8"?>
<svg width="280px" height="96px" viewBox="0 0 280 96" version="1.1" xmlns="http://www.w3.org/2000/svg" xmlns:xlink="http://www.w3.org/1999/xlink">
    <!-- Generator: Sketch 52.2 (67145) - http://www.bohemiancoding.com/sketch -->
    <title>apple</title>
    <desc>Created with Sketch.</desc>
    <g id="Page-1" stroke="none" stroke-width="1" fill="none" fill-rule="evenodd">
        <g id="download-buttons" transform="translate(-110.000000, -252.000000)">
            <g id="apple" transform="translate(110.000000, 252.250000)">
                <rect id="bg" fill="#000000" x="0" y="0" width="280" height="95" rx="12"></rect>
                <path d="M108.440123,69.4584 L103.673827,69.4584 L101.062963,61.2495 L91.9879012,61.2495 L89.5008642,69.4584 L84.8604938,69.4584 L93.8516049,41.5116 L99.4049383,41.5116 L108.440123,69.4584 L108.440123,69.4584 Z M100.275926,57.8055 L92.777037,57.8055 L95.0961728,50.508 C95.7048148,48.1875 96.1476543,46.4319 96.4225926,45.2433 L96.5065432,45.2433 C97.197037,48.0069 97.6650617,49.7625 97.9148148,50.508 L100.275926,57.8055 Z M131.562222,59.1348 C131.562222,62.562 130.636667,65.271 128.785556,67.2597 C127.127531,69.03 125.068642,69.9141 122.610988,69.9141 C119.958148,69.9141 118.052469,68.9607 116.891852,67.0539 L116.807901,67.0539 L116.807901,77.6694 L112.333333,77.6694 L112.333333,55.9407 C112.333333,53.7861 112.276667,51.5748 112.167531,49.3068 L116.102716,49.3068 L116.352469,52.5009 L116.43642,52.5009 C117.928642,50.0943 120.19321,48.8931 123.232222,48.8931 C125.608025,48.8931 127.591358,49.8318 129.178025,51.7113 C130.768889,53.5929 131.562222,56.0667 131.562222,59.1348 Z M127.003704,59.2986 C127.003704,57.3372 126.562963,55.7202 125.677284,54.4476 C124.709753,53.1204 123.410617,52.4568 121.781975,52.4568 C120.678025,52.4568 119.674815,52.8264 118.778642,53.5551 C117.88037,54.2901 117.292716,55.2498 117.017778,56.4384 C116.879259,56.9928 116.81,57.4464 116.81,57.8034 L116.81,61.1634 C116.81,62.6292 117.259136,63.8661 118.157407,64.8762 C119.055679,65.8863 120.222593,66.3903 121.658148,66.3903 C123.343457,66.3903 124.655185,65.7393 125.593333,64.4415 C126.53358,63.1416 127.003704,61.428 127.003704,59.2986 Z M154.726296,59.1348 C154.726296,62.562 153.800741,65.271 151.947531,67.2597 C150.291605,69.03 148.232716,69.9141 145.775062,69.9141 C143.122222,69.9141 141.216543,68.9607 140.058025,67.0539 L139.974074,67.0539 L139.974074,77.6694 L135.499506,77.6694 L135.499506,55.9407 C135.499506,53.7861 135.44284,51.5748 135.333704,49.3068 L139.268889,49.3068 L139.518642,52.5009 L139.602593,52.5009 C141.092716,50.0943 143.357284,48.8931 146.398395,48.8931 C148.772099,48.8931 150.755432,49.8318 152.346296,51.7113 C153.930864,53.5929 154.726296,56.0667 154.726296,59.1348 Z M150.167778,59.2986 C150.167778,57.3372 149.724938,55.7202 148.839259,54.4476 C147.871728,53.1204 146.57679,52.4568 144.946049,52.4568 C143.84,52.4568 142.838889,52.8264 141.940617,53.5551 C141.042346,54.2901 140.45679,55.2498 140.181852,56.4384 C140.045432,56.9928 139.974074,57.4464 139.974074,57.8034 L139.974074,61.1634 C139.974074,62.6292 140.42321,63.8661 141.317284,64.8762 C142.215556,65.8842 143.382469,66.3903 144.822222,66.3903 C146.507531,66.3903 147.819259,65.7393 148.757407,64.4415 C149.697654,63.1416 150.167778,61.428 150.167778,59.2986 Z M180.625062,61.6212 C180.625062,63.9984 179.800247,65.9325 178.144321,67.4256 C176.324691,69.0573 173.791481,69.8721 170.536296,69.8721 C167.530864,69.8721 165.121481,69.2925 163.297654,68.1312 L164.334444,64.3995 C166.298889,65.5881 168.454321,66.1845 170.80284,66.1845 C172.488148,66.1845 173.799877,65.8023 174.742222,65.0421 C175.68037,64.2819 176.148395,63.2613 176.148395,61.9887 C176.148395,60.8547 175.762222,59.8992 174.987778,59.1243 C174.217531,58.3494 172.930988,57.6291 171.134444,56.9634 C166.244321,55.1385 163.801358,52.4652 163.801358,48.9498 C163.801358,46.6524 164.657654,44.7687 166.372346,43.3029 C168.080741,41.835 170.36,41.1021 173.210123,41.1021 C175.751728,41.1021 177.863086,41.5452 179.548395,42.4293 L178.429753,46.0791 C176.855679,45.2223 175.075926,44.7939 173.084198,44.7939 C171.510123,44.7939 170.280247,45.1824 169.398765,45.9552 C168.653704,46.6461 168.280123,47.4882 168.280123,48.4857 C168.280123,49.5903 168.706173,50.5038 169.562469,51.222 C170.307531,51.8856 171.661235,52.6038 173.625679,53.3787 C176.028765,54.3468 177.793827,55.4787 178.929259,56.7765 C180.060494,58.0701 180.625062,59.6892 180.625062,61.6212 Z M195.419259,52.6668 L190.48716,52.6668 L190.48716,62.4507 C190.48716,64.9392 191.356049,66.1824 193.098025,66.1824 C193.897654,66.1824 194.560864,66.1131 195.085556,65.9745 L195.209383,69.3744 C194.327901,69.7041 193.167284,69.87 191.72963,69.87 C189.962469,69.87 188.581481,69.3303 187.584568,68.253 C186.591852,67.1736 186.092346,65.3634 186.092346,62.8203 L186.092346,52.6626 L183.154074,52.6626 L183.154074,49.3026 L186.092346,49.3026 L186.092346,45.6129 L190.48716,44.2857 L190.48716,49.3026 L195.419259,49.3026 L195.419259,52.6668 Z M217.672469,59.2167 C217.672469,62.3142 216.78679,64.8573 215.01963,66.846 C213.16642,68.8935 210.706667,69.9141 207.64037,69.9141 C204.685309,69.9141 202.332593,68.9334 200.578025,66.972 C198.823457,65.0106 197.946173,62.5347 197.946173,59.5506 C197.946173,56.4279 198.848642,53.8701 200.659877,51.8814 C202.466914,49.8906 204.905679,48.8952 207.971975,48.8952 C210.927037,48.8952 213.304938,49.8759 215.099383,51.8394 C216.816173,53.7441 217.672469,56.2032 217.672469,59.2167 Z M213.03,59.3616 C213.03,57.5031 212.633333,55.9092 211.829506,54.5799 C210.891358,52.9713 209.550247,52.1691 207.812469,52.1691 C206.013827,52.1691 204.647531,52.9734 203.709383,54.5799 C202.905556,55.9113 202.508889,57.5304 202.508889,59.4456 C202.508889,61.3041 202.905556,62.898 203.709383,64.2252 C204.676914,65.8338 206.028519,66.636 207.772593,66.636 C209.480988,66.636 210.822099,65.817 211.78963,64.1832 C212.614444,62.8287 213.03,61.218 213.03,59.3616 Z M232.216914,53.2443 C231.774074,53.1624 231.301852,53.1204 230.806543,53.1204 C229.232469,53.1204 228.015185,53.7147 227.158889,54.9054 C226.413827,55.9554 226.040247,57.2826 226.040247,58.8849 L226.040247,69.4584 L221.567778,69.4584 L221.609753,55.653 C221.609753,53.3304 221.553086,51.2157 221.441852,49.3089 L225.339259,49.3089 L225.502963,53.1645 L225.62679,53.1645 C226.099012,51.8394 226.844074,50.7726 227.864074,49.9725 C228.860988,49.2522 229.937654,48.8931 231.098272,48.8931 C231.511728,48.8931 231.885309,48.9225 232.216914,48.975 L232.216914,53.2443 Z M252.228642,58.4292 C252.228642,59.2314 252.176173,59.9076 252.064938,60.4599 L238.641235,60.4599 C238.693704,62.4507 239.342222,63.9732 240.588889,65.0232 C241.720123,65.9619 243.182963,66.4323 244.979506,66.4323 C246.967037,66.4323 248.78037,66.1152 250.411111,65.4789 L251.112099,68.5869 C249.20642,69.4185 246.956543,69.8322 244.36037,69.8322 C241.237407,69.8322 238.786049,68.9124 237.002099,67.0749 C235.222346,65.2374 234.33037,62.7699 234.33037,59.6745 C234.33037,56.6358 235.159383,54.1053 236.819506,52.0872 C238.557284,49.9326 240.905802,48.8553 243.860864,48.8553 C246.763457,48.8553 248.960864,49.9326 250.453086,52.0872 C251.634691,53.7987 252.228642,55.9155 252.228642,58.4292 Z M247.961852,57.2679 C247.991235,55.9407 247.699506,54.7941 247.092963,53.826 C246.318519,52.5807 245.128519,51.9591 243.52716,51.9591 C242.064321,51.9591 240.874321,52.566 239.965556,53.784 C239.220494,54.7521 238.777654,55.9134 238.641235,57.2658 L247.961852,57.2658 L247.961852,57.2679 Z" id="app-store" fill="#FFFFFF"></path>
                <path d="M98.7962963,24.3189 C98.7962963,26.7906 98.0554321,28.6512 96.5758025,29.9007 C95.2053086,31.0536 93.2576543,31.6311 90.7349383,31.6311 C89.4840741,31.6311 88.4137037,31.5765 87.5175309,31.4673 L87.5175309,17.9622 C88.6865432,17.7732 89.9458025,17.6766 91.3058025,17.6766 C93.7088889,17.6766 95.5201235,18.1995 96.7416049,19.2453 C98.11,20.4276 98.7962963,22.1181 98.7962963,24.3189 Z M96.4771605,24.3798 C96.4771605,22.7775 96.0532099,21.549 95.2053086,20.6922 C94.3574074,19.8375 93.1191358,19.4091 91.4883951,19.4091 C90.7958025,19.4091 90.2060494,19.4553 89.717037,19.5519 L89.717037,29.8188 C89.9877778,29.8608 90.4830864,29.8797 91.202963,29.8797 C92.8861728,29.8797 94.1853086,29.4114 95.1003704,28.4748 C96.0154321,27.5382 96.4771605,26.1732 96.4771605,24.3798 Z M111.092963,26.4777 C111.092963,28.0002 110.658519,29.2476 109.78963,30.2262 C108.878765,31.2321 107.671975,31.734 106.165062,31.734 C104.712716,31.734 103.556296,31.2531 102.693704,30.2871 C101.83321,29.3232 101.402963,28.1073 101.402963,26.6415 C101.402963,25.1085 101.845802,23.8506 102.735679,22.8741 C103.625556,21.8976 104.821852,21.4083 106.328765,21.4083 C107.781111,21.4083 108.948025,21.8892 109.831605,22.8531 C110.671111,23.7897 111.092963,24.9993 111.092963,26.4777 Z M108.811605,26.5491 C108.811605,25.6356 108.614321,24.8523 108.221852,24.1992 C107.760123,23.4096 107.10321,23.0148 106.249012,23.0148 C105.365432,23.0148 104.693827,23.4096 104.232099,24.1992 C103.837531,24.8523 103.642346,25.6482 103.642346,26.589 C103.642346,27.5025 103.83963,28.2858 104.232099,28.9389 C104.708519,29.7285 105.371728,30.1233 106.228025,30.1233 C107.067531,30.1233 107.726543,29.7222 108.200864,28.9179 C108.608025,28.2522 108.811605,27.4626 108.811605,26.5491 Z M127.580864,21.6099 L124.485185,31.5093 L122.47037,31.5093 L121.188025,27.2106 C120.862716,26.1375 120.598272,25.0707 120.392593,24.0123 L120.352716,24.0123 C120.161728,25.1001 119.897284,26.1648 119.557284,27.2106 L118.195185,31.5093 L116.157284,31.5093 L113.246296,21.6099 L115.506667,21.6099 L116.625309,26.316 C116.896049,27.429 117.118519,28.4895 117.296914,29.4933 L117.33679,29.4933 C117.500494,28.6659 117.771235,27.6117 118.15321,26.337 L119.557284,21.612 L121.34963,21.612 L122.694938,26.2362 C123.020247,27.3639 123.284691,28.4496 123.488272,29.4954 L123.549136,29.4954 C123.698148,28.4769 123.922716,27.3912 124.220741,26.2362 L125.421235,21.612 L127.580864,21.612 L127.580864,21.6099 Z M138.983457,31.5093 L136.783951,31.5093 L136.783951,25.8393 C136.783951,24.0921 136.120741,23.2185 134.790123,23.2185 C134.137407,23.2185 133.610617,23.4579 133.201358,23.9388 C132.796296,24.4197 132.590617,24.9867 132.590617,25.6356 L132.590617,31.5072 L130.391111,31.5072 L130.391111,24.4386 C130.391111,23.5692 130.363827,22.6263 130.311358,21.6057 L132.244321,21.6057 L132.34716,23.1534 L132.408025,23.1534 C132.664074,22.6725 133.046049,22.2756 133.547654,21.9585 C134.143704,21.5889 134.811111,21.402 135.541481,21.402 C136.464938,21.402 137.233086,21.7002 137.843827,22.2987 C138.60358,23.0316 138.983457,24.1257 138.983457,25.5789 L138.983457,31.5093 Z M142.851481,17.0676 L145.048889,17.0676 L145.048889,31.5093 L142.851481,31.5093 L142.851481,17.0676 Z M157.998272,26.4777 C157.998272,28.0002 157.563827,29.2476 156.694938,30.2262 C155.784074,31.2321 154.575185,31.734 153.07037,31.734 C151.615926,31.734 150.459506,31.2531 149.599012,30.2871 C148.738519,29.3232 148.308272,28.1073 148.308272,26.6415 C148.308272,25.1085 148.751111,23.8506 149.640988,22.8741 C150.530864,21.8976 151.72716,21.4083 153.231975,21.4083 C154.68642,21.4083 155.851235,21.8892 156.736914,22.8531 C157.57642,23.7897 157.998272,24.9993 157.998272,26.4777 Z M155.714815,26.5491 C155.714815,25.6356 155.517531,24.8523 155.125062,24.1992 C154.665432,23.4096 154.00642,23.0148 153.154321,23.0148 C152.268642,23.0148 151.597037,23.4096 151.137407,24.1992 C150.74284,24.8523 150.547654,25.6482 150.547654,26.589 C150.547654,27.5025 150.744938,28.2858 151.137407,28.9389 C151.613827,29.7285 152.277037,30.1233 153.133333,30.1233 C153.97284,30.1233 154.629753,29.7222 155.104074,28.9179 C155.513333,28.2522 155.714815,27.4626 155.714815,26.5491 Z M168.64321,31.5093 L166.668272,31.5093 L166.504568,30.369 L166.443704,30.369 C165.767901,31.2783 164.804568,31.734 163.553704,31.734 C162.619753,31.734 161.864198,31.4337 161.295432,30.8373 C160.779136,30.2955 160.520988,29.6214 160.520988,28.8213 C160.520988,27.6117 161.024691,26.6898 162.038395,26.0514 C163.05,25.413 164.472963,25.1001 166.305185,25.1148 L166.305185,24.93 C166.305185,23.6259 165.620988,22.9749 164.250494,22.9749 C163.274568,22.9749 162.414074,23.2206 161.671111,23.7078 L161.224074,22.263 C162.143333,21.6939 163.278765,21.4083 164.617778,21.4083 C167.203457,21.4083 168.500494,22.7733 168.500494,25.5033 L168.500494,29.1489 C168.500494,30.138 168.548765,30.9255 168.64321,31.5093 Z M166.359753,28.1073 L166.359753,26.5806 C163.93358,26.5386 162.720494,27.2043 162.720494,28.5756 C162.720494,29.0922 162.859012,29.4786 163.142346,29.7369 C163.425679,29.9952 163.786667,30.1233 164.216914,30.1233 C164.69963,30.1233 165.150864,29.97 165.562222,29.6655 C165.975679,29.3589 166.22963,28.9704 166.324074,28.4937 C166.34716,28.3866 166.359753,28.2564 166.359753,28.1073 Z M181.141358,31.5093 L179.189506,31.5093 L179.086667,29.9196 L179.025802,29.9196 C178.402469,31.1292 177.340494,31.734 175.848272,31.734 C174.656173,31.734 173.663457,31.2657 172.87642,30.3291 C172.089383,29.3925 171.696914,28.1766 171.696914,26.6835 C171.696914,25.0812 172.122963,23.7834 172.979259,22.7922 C173.808272,21.8682 174.824074,21.4062 176.032963,21.4062 C177.361481,21.4062 178.291235,21.8535 178.820123,22.7502 L178.862099,22.7502 L178.862099,17.0676 L181.063704,17.0676 L181.063704,28.8423 C181.063704,29.8062 181.088889,30.6945 181.141358,31.5093 Z M178.862099,27.3345 L178.862099,25.6839 C178.862099,25.3983 178.841111,25.1673 178.801235,24.9909 C178.677407,24.4617 178.410864,24.0165 178.005802,23.6574 C177.596543,23.2983 177.103333,23.1177 176.534568,23.1177 C175.713951,23.1177 175.071728,23.4432 174.599506,24.0963 C174.131481,24.7494 173.894321,25.5831 173.894321,26.6016 C173.894321,27.5802 174.118889,28.374 174.570123,28.9851 C175.046543,29.6361 175.688765,29.9616 176.492593,29.9616 C177.214568,29.9616 177.791728,29.6907 178.23037,29.1468 C178.654321,28.6449 178.862099,28.0401 178.862099,27.3345 Z M199.952593,26.4777 C199.952593,28.0002 199.518148,29.2476 198.649259,30.2262 C197.738395,31.2321 196.533704,31.734 195.024691,31.734 C193.574444,31.734 192.418025,31.2531 191.553333,30.2871 C190.69284,29.3232 190.262593,28.1073 190.262593,26.6415 C190.262593,25.1085 190.705432,23.8506 191.595309,22.8741 C192.485185,21.8976 193.681481,21.4083 195.190494,21.4083 C196.640741,21.4083 197.809753,21.8892 198.691235,22.8531 C199.530741,23.7897 199.952593,24.9993 199.952593,26.4777 Z M197.673333,26.5491 C197.673333,25.6356 197.476049,24.8523 197.08358,24.1992 C196.619753,23.4096 195.964938,23.0148 195.108642,23.0148 C194.22716,23.0148 193.555556,23.4096 193.091728,24.1992 C192.69716,24.8523 192.501975,25.6482 192.501975,26.589 C192.501975,27.5025 192.699259,28.2858 193.091728,28.9389 C193.568148,29.7285 194.231358,30.1233 195.087654,30.1233 C195.92716,30.1233 196.588272,29.7222 197.062593,28.9179 C197.467654,28.2522 197.673333,27.4626 197.673333,26.5491 Z M211.779136,31.5093 L209.581728,31.5093 L209.581728,25.8393 C209.581728,24.0921 208.918519,23.2185 207.585802,23.2185 C206.933086,23.2185 206.406296,23.4579 205.999136,23.9388 C205.591975,24.4197 205.388395,24.9867 205.388395,25.6356 L205.388395,31.5072 L203.18679,31.5072 L203.18679,24.4386 C203.18679,23.5692 203.161605,22.6263 203.109136,21.6057 L205.04,21.6057 L205.14284,23.1534 L205.203704,23.1534 C205.461852,22.6725 205.843827,22.2756 206.343333,21.9585 C206.941481,21.5889 207.60679,21.402 208.339259,21.402 C209.260617,21.402 210.028765,21.7002 210.639506,22.2987 C211.401358,23.0316 211.779136,24.1257 211.779136,25.5789 L211.779136,31.5093 Z M226.581728,23.2584 L224.159753,23.2584 L224.159753,28.0674 C224.159753,29.2896 224.59,29.9007 225.442099,29.9007 C225.836667,29.9007 226.164074,29.8671 226.422222,29.7978 L226.478889,31.4673 C226.044444,31.6311 225.47358,31.713 224.770494,31.713 C223.901605,31.713 223.225802,31.4484 222.73679,30.9192 C222.245679,30.39 222.002222,29.4996 222.002222,28.2501 L222.002222,23.2584 L220.556173,23.2584 L220.556173,21.6099 L222.002222,21.6099 L222.002222,19.7955 L224.157654,19.1445 L224.157654,21.6078 L226.57963,21.6078 L226.57963,23.2584 L226.581728,23.2584 Z M238.225679,31.5093 L236.024074,31.5093 L236.024074,25.8813 C236.024074,24.1068 235.360864,23.2185 234.032346,23.2185 C233.012346,23.2185 232.315556,23.733 231.93358,24.762 C231.868519,24.9783 231.830741,25.2429 231.830741,25.5537 L231.830741,31.5072 L229.633333,31.5072 L229.633333,17.0676 L231.830741,17.0676 L231.830741,23.0337 L231.872716,23.0337 C232.565309,21.948 233.558025,21.4062 234.844568,21.4062 C235.755432,21.4062 236.508889,21.7044 237.107037,22.3029 C237.852099,23.0484 238.225679,24.1572 238.225679,25.623 L238.225679,31.5093 Z M250.236914,26.0913 C250.236914,26.4861 250.207531,26.8179 250.155062,27.0888 L243.558642,27.0888 C243.588025,28.0674 243.90284,28.8129 244.51358,29.3295 C245.071852,29.7915 245.791728,30.0225 246.67321,30.0225 C247.649136,30.0225 248.539012,29.8671 249.340741,29.5542 L249.684938,31.083 C248.74679,31.4904 247.64284,31.6941 246.364691,31.6941 C244.832593,31.6941 243.625802,31.2426 242.752716,30.3396 C241.875432,29.4366 241.440988,28.2249 241.440988,26.7045 C241.440988,25.2114 241.846049,23.9682 242.662469,22.977 C243.514568,21.9186 244.66679,21.3894 246.121235,21.3894 C247.544198,21.3894 248.625062,21.9186 249.355432,22.977 C249.945185,23.817 250.236914,24.8565 250.236914,26.0913 Z M248.138148,25.5222 C248.154938,24.8691 248.010123,24.3063 247.712099,23.8317 C247.330123,23.2206 246.748765,22.914 245.961728,22.914 C245.243951,22.914 244.658395,23.2122 244.211358,23.8107 C243.846173,24.2874 243.63,24.8565 243.558642,25.5222 L248.138148,25.5222 Z" id="download-on-the" fill="#FFFFFF"></path>
                <path d="M58.4869946,45.7170941 C58.5568453,53.8938564 65.6392804,56.5968659 65.7260646,56.6264995 C65.6837308,56.8170013 64.6169205,60.5275538 61.9604782,64.2952569 C59.7421901,67.6121056 57.4180676,70.8548703 53.7265653,70.9141375 C50.1408973,70.9966883 48.9343857,68.8038004 44.8216626,68.8038004 C40.6708392,68.8038004 39.3860101,70.8548703 35.9463935,70.9966883 C32.4305762,71.1258062 29.7445003,67.4554708 27.4457781,64.1682557 C22.8504504,57.4562408 19.2732491,45.2535396 24.0696621,36.9497761 C26.3937846,32.87727 30.6313922,30.2546947 35.1611026,30.184844 C38.6811533,30.1128767 41.9472015,32.5618837 44.1104557,32.5618837 C46.2313762,32.5618837 50.2700152,29.6323887 54.4335388,30.0705429 C56.1755723,30.1213434 61.1328535,30.7584662 64.3311678,35.421528 C64.0729319,35.5760461 58.4256107,38.8950115 58.4869946,45.7170941 Z M51.7135959,25.6551336 C49.7831772,27.9326889 46.6949307,29.6747224 43.6871183,29.4503536 C43.2934145,26.3769239 44.8174292,23.108759 46.5234791,21.1148398 C48.451781,18.8521012 51.80038,17.1185345 54.4779892,17 C54.8293593,20.1940809 53.5635804,23.3415946 51.7135959,25.6551336 Z" fill="#FFFFFF"></path>
            </g>
        </g>
    </g>
</svg>