<?xml version="1.0" encoding="UTF-8"?>
<svg width="280px" height="95px" viewBox="0 0 280 95" version="1.1" xmlns="http://www.w3.org/2000/svg" xmlns:xlink="http://www.w3.org/1999/xlink">
    <!-- Generator: Sketch 52.2 (67145) - http://www.bohemiancoding.com/sketch -->
    <title>google play</title>
    <desc>Created with Sketch.</desc>
    <defs>
        <linearGradient x1="50%" y1="0%" x2="50%" y2="100%" id="linearGradient-1">
            <stop stop-color="#1E79AF" offset="0%"></stop>
            <stop stop-color="#63FFD3" offset="100%"></stop>
        </linearGradient>
        <linearGradient x1="84.7178118%" y1="14.4459862%" x2="5.24419544%" y2="96.5617838%" id="linearGradient-2">
            <stop stop-color="#DC4057" offset="0%"></stop>
            <stop stop-color="#9E36BB" offset="100%"></stop>
        </linearGradient>
        <linearGradient x1="50%" y1="0%" x2="50%" y2="97.8256537%" id="linearGradient-3">
            <stop stop-color="#FF9676" offset="0%"></stop>
            <stop stop-color="#FFD074" offset="100%"></stop>
        </linearGradient>
        <linearGradient x1="17.4435371%" y1="0%" x2="100%" y2="100%" id="linearGradient-4">
            <stop stop-color="#51C6AD" offset="0%"></stop>
            <stop stop-color="#D5FFA1" offset="100%"></stop>
        </linearGradient>
    </defs>
    <g id="Page-1" stroke="none" stroke-width="1" fill="none" fill-rule="evenodd">
        <g id="download-buttons" transform="translate(-410.000000, -253.000000)">
            <g id="google-play" transform="translate(410.000000, 253.000000)">
                <rect id="bg" fill="#000000" x="0" y="0" width="280" height="95" rx="12"></rect>
                <g transform="translate(20.923736, 39.043821)">
                    <path d="M1.75182996,-0.28559108 C0.962994246,-0.0367713837 0.45249964,0.768521919 0.45249964,1.98688043 L0.457361494,40.3320793 C0.457361494,41.536955 0.952055076,42.3299912 1.71901245,42.5947452 L22.9956983,21.1374171 L1.75182996,-0.28559108" id="left" fill="url(#linearGradient-1)"></path>
                    <path d="M1.71901245,42.5947452 C2.27083281,42.7835049 2.96243145,42.6952536 3.71601873,42.2785113 L29.6807467,27.8788374 L22.9956983,21.1374171 L1.71901245,42.5947452" id="bottom" fill="url(#linearGradient-2)"></path>
                    <path d="M29.6843931,27.8788374 L38.5378281,22.9698577 C40.3330675,21.9709018 40.3330675,20.3456066 38.5378281,19.3491021 L29.6515756,14.4217367 L22.9956983,21.1337399 L29.6843931,27.8788374" id="right" fill="url(#linearGradient-3)"></path>
                    <path d="M29.6503602,14.4217367 L3.71601873,0.0416742349 C2.9806634,-0.364036699 2.30243485,-0.458416583 1.75304542,-0.28559108 L22.9956983,21.1337399 L29.6503602,14.4217367" id="top" fill="url(#linearGradient-4)"></path>
                </g>
                <path d="M97.0449066,69.5616181 L91.5461505,70.8314566 C89.3182061,71.1856876 87.3175535,71.4970186 85.1990009,71.4970186 C74.5928677,71.4970186 70.5514521,63.6242654 70.5514521,57.4626072 C70.5514521,49.9379564 76.2774999,42.9611992 86.0838582,42.9611992 C88.1586541,42.9611992 90.1544449,43.2688531 91.9727781,43.7689439 C94.8546417,44.5852686 96.2025905,45.5915788 97.0449066,46.1811467 L93.850669,49.2405258 L92.5039356,49.5445026 L93.4641516,48.0013302 C92.1636058,46.7204603 89.7727894,44.3560603 85.2354648,44.3560603 C79.1690872,44.3560603 74.5928677,49.0064147 74.5928677,55.7956378 C74.5928677,63.0874032 79.8181446,69.946492 88.1987644,69.946492 C90.6612931,69.946492 91.9290214,69.4476269 93.0800652,68.981856 L93.0800652,62.7307208 L87.2737968,63.045729 L90.35135,61.3787596 L98.4998163,61.3787596 L97.5031363,62.345847 C97.2345189,62.576281 97.198055,62.6547266 97.1226963,62.9636062 C97.082586,63.3166115 97.0449066,64.4393644 97.0449066,64.8340439 L97.0449066,69.5616181 Z M109.655339,70.9969278 C103.134378,70.9969278 99.6520755,65.8771255 99.6520755,61.2414797 C99.6520755,55.8250549 104.038683,51.1906349 110.27401,51.1906349 C116.300277,51.1906349 120.073075,55.9513033 120.073075,60.9497601 C120.073075,65.8317741 116.345249,70.9969278 109.655339,70.9969278 Z M114.78581,67.6507319 C115.770335,66.3269621 116.015859,64.6747013 116.015859,63.0641146 C116.015859,59.4212962 114.289901,52.4739561 109.208048,52.4739561 C107.850376,52.4739561 106.502427,53.0071412 105.517902,53.8773973 C103.91349,55.3249641 103.629072,57.1439219 103.629072,58.9285597 C103.629072,63.0150861 105.640663,69.7552808 110.6034,69.7552808 C112.204166,69.7552808 113.838964,68.9720503 114.78581,67.6507319 Z M131.483845,70.9969278 C124.9641,70.9969278 121.47572,65.8771255 121.47572,61.2414797 C121.47572,55.8250549 125.861112,51.1906349 132.09887,51.1906349 C138.128783,51.1906349 141.905228,55.9513033 141.905228,60.9497601 C141.905228,65.8317741 138.17254,70.9969278 131.483845,70.9969278 Z M136.6131,67.6507319 C137.604919,66.3269621 137.84558,64.6747013 137.84558,63.0641146 C137.84558,59.4212962 136.124484,52.4739561 131.03777,52.4739561 C129.684959,52.4739561 128.322425,53.0071412 127.340331,53.8773973 C125.73835,55.3249641 125.452716,57.1439219 125.452716,58.9285597 C125.452716,63.0150861 127.4558,69.7552808 132.427045,69.7552808 C134.031456,69.7552808 135.668685,68.9720503 136.6131,67.6507319 Z M156.913769,53.2204152 C157.855753,54.0011943 159.821158,55.658358 159.821158,58.8010856 C159.821158,61.8641418 158.10857,63.3080315 156.381396,64.6747013 C155.851454,65.2127892 155.231568,65.7962285 155.231568,66.6983531 C155.231568,67.6139605 155.851454,68.1103742 156.297529,68.4805395 L157.779179,69.6339352 C159.580496,71.1673019 161.222587,72.5731945 161.222587,75.4291053 C161.222587,79.3195177 157.488683,83.2430243 150.432919,83.2430243 C144.489303,83.2430243 141.615948,80.3883392 141.615948,77.3277344 C141.615948,75.8384933 142.351303,73.7290416 144.777368,72.2839263 C147.320117,70.7162396 150.76474,70.5066427 152.609814,70.3840714 C152.033684,69.6339352 151.376118,68.8482533 151.376118,67.5661577 C151.376118,66.86505 151.585178,66.4470819 151.786945,65.9543454 C151.338439,65.9972454 150.886287,66.041371 150.47546,66.041371 C146.125317,66.041371 143.666434,62.7687179 143.666434,59.5438675 C143.666434,57.6415613 144.526982,55.5308838 146.294266,54.0011943 C148.632817,52.0596652 151.42109,51.7250456 153.63688,51.7250456 L162.089212,51.7250456 L159.46138,53.2204152 L156.913769,53.2204152 Z M154.007596,71.5828185 C153.670913,71.5386929 153.469146,71.5386929 153.063181,71.5386929 C152.69125,71.5386929 150.47546,71.6195899 148.759226,72.2005778 C147.851275,72.5351974 145.227089,73.5243476 145.227089,76.4623812 C145.227089,79.3942861 148.060334,81.5086407 152.443295,81.5086407 C156.381396,81.5086407 158.471993,79.6051087 158.471993,77.0421433 C158.471993,74.9326916 157.119183,73.8197444 154.007596,71.5828185 Z M155.186596,63.7235481 C156.134657,62.7687179 156.217309,61.4498509 156.217309,60.7009404 C156.217309,57.7261354 154.458533,53.0929411 151.049159,53.0929411 C149.985628,53.0929411 148.833369,53.631029 148.17945,54.463288 C147.48542,55.3249641 147.277576,56.4428142 147.277576,57.5177643 C147.277576,60.2878752 148.879557,64.8818467 152.403185,64.8818467 C153.431467,64.8818467 154.537538,64.3780788 155.186596,63.7235481 Z M168.123988,67.3651408 C168.123988,68.9720503 168.408406,69.2220957 169.756355,69.3483441 C170.458893,69.4316926 171.159,69.468464 171.851814,69.5518124 L170.334916,70.462517 L163.106555,70.462517 C164.054616,69.2220957 164.217489,69.0982987 164.217489,68.2721683 L164.217489,67.3492066 L164.201687,42.7565051 L161.009881,42.7565051 L164.082572,41.263587 L169.948398,41.263587 C168.677024,42.0063689 168.296583,42.4586569 168.133711,43.9062237 L168.123988,67.3651408 Z M188.284878,67.6850519 L186.32312,69.5518124 C185.869753,69.8030836 185.418816,70.0948032 184.969094,70.3019487 C183.60656,70.9258365 182.220932,71.0827277 180.989667,71.0827277 C179.679398,71.0827277 177.625265,70.9969278 175.529806,69.468464 C172.618771,67.4006865 171.346181,63.8461194 171.346181,60.7487432 C171.346181,54.3358139 176.522839,51.1906349 180.745359,51.1906349 C182.220932,51.1906349 183.736614,51.5632515 184.969094,52.3489334 C187.018365,53.7156032 187.548307,55.491661 187.84245,56.4428142 L178.200179,60.3712236 L175.042405,60.6188176 C176.06461,65.8771255 179.591884,68.9352789 183.489875,68.9352789 C185.437048,68.9352789 186.882234,68.2942311 188.208304,67.6335719 C188.208304,67.6335719 188.474491,67.4938407 188.284878,67.6850519 Z M182.467671,57.2260446 C183.250429,56.9392278 183.657609,56.6916339 183.657609,56.1155488 C183.657609,54.463288 181.804028,52.5548532 179.591884,52.5548532 C177.95344,52.5548532 174.877102,53.8418516 174.877102,58.3108004 C174.877102,59.008231 174.959754,59.751013 175.001079,60.4937949 L182.467671,57.2260446 Z M200.10769,67.8615545 L200.10769,78.3965559 L198.032894,78.3965559 L198.032894,51.5889915 L200.10769,51.5889915 L200.10769,54.6422421 C201.459285,52.6688445 203.929107,51.104835 206.7976,51.104835 C211.942657,51.104835 215.407943,55.0405987 215.407943,61.2708968 C215.407943,67.4595207 211.942657,71.4774072 206.7976,71.4774072 C204.089548,71.4774072 201.663483,70.0690632 200.10769,67.8615545 Z M213.178783,61.2708968 C213.178783,56.5751911 210.751503,52.9936584 206.447547,52.9936584 C203.774743,52.9936584 201.218624,55.1116901 200.10769,56.9588392 L200.10769,65.5400545 C201.218624,67.3908808 203.774743,69.5861324 206.447547,69.5861324 C210.751503,69.5861324 213.178783,65.9739568 213.178783,61.2708968 Z M218.241188,44.186912 L220.314768,44.186912 L220.314768,70.9944764 L218.241188,70.9944764 L218.241188,44.186912 Z M237.535453,70.9368679 C237.39689,70.2639516 237.29236,69.6707066 237.215786,69.1755186 C237.152582,68.6815564 237.116118,68.1765627 237.116118,67.662989 C236.405072,68.7158763 235.397453,69.592261 234.110277,70.2823373 C232.821886,70.9773164 231.597915,71.3180646 229.91936,71.3180646 C227.898044,71.3180646 226.328881,70.816748 225.209439,69.7994064 C224.093644,68.7832905 223.5321,67.4068151 223.5321,65.6650772 C223.5321,63.9257907 224.345245,62.5137696 225.966673,61.4339166 C227.588101,60.3491608 229.68356,59.8098472 232.277359,59.8098472 L237.116118,59.8098472 L237.116118,57.3988701 C237.116118,56.0101375 236.646949,54.9180274 235.709827,54.126217 C234.769058,53.3331808 233.449065,52.9323727 231.737693,52.9323727 C230.173392,52.9323727 228.904448,53.2988609 227.938154,54.0122257 C226.980369,54.7402991 226.49783,55.6424237 226.49783,56.729631 L224.374416,56.729631 L224.330659,56.6254454 C224.254085,55.1594929 224.918944,53.8737202 226.332527,52.7632244 C227.740034,51.6539543 229.583892,51.096255 231.853162,51.096255 C234.115139,51.096255 235.945627,51.6453743 237.325178,52.7411615 C238.703513,53.8259174 239.395112,55.393604 239.395112,57.4429958 L239.395112,67.0158127 C239.395112,67.7034376 239.427929,68.3677739 239.513012,69.0149502 C239.600525,69.6633523 239.740304,70.3105287 239.926269,70.9368679 L237.535453,70.9368679 Z M230.173392,69.4120812 C231.935813,69.4120812 233.202326,69.0149502 234.496795,68.2292683 C235.782755,67.4484893 236.657889,66.429922 237.116118,65.1968549 L237.116118,61.470688 L232.254265,61.470688 C230.397037,61.470688 228.859476,61.8849789 227.65009,62.7209151 C226.438273,63.5543998 225.824464,64.5631614 225.824464,65.7361685 C225.824464,66.8429872 226.213412,67.7279518 226.986447,68.3984167 C227.761912,69.0762359 228.821796,69.4120812 230.173392,69.4120812 Z M243.595753,76.6633981 C244.039397,76.8631892 244.796631,76.9857605 245.276739,76.9857605 C246.545683,76.9857605 247.429325,76.4623812 248.223022,74.6140063 L249.736274,71.1562705 L241.563499,51.5889915 L243.877741,51.5889915 L250.888533,68.5455022 L257.83126,51.5889915 L260.17832,51.5889915 L250.210305,75.2624083 C249.175946,77.7015768 247.54844,78.8745839 245.313203,78.8745839 C244.642267,78.8745839 243.75741,78.7544641 243.239623,78.5938957 L243.595753,76.6633981 Z" id="logotype" fill="#FFFFFF"></path>
                <path d="M70.3967757,22.0835687 C70.3967757,17.9205836 73.4895974,15.2426979 77.3367357,15.2426979 C79.9142936,15.2426979 81.59881,16.4726426 82.6503942,17.9787985 L80.7664607,19.0700184 C80.0530184,18.0778877 78.8032559,17.3062306 77.3367357,17.3062306 C74.7207807,17.3062306 72.7761551,19.2880146 72.7761551,22.0835687 C72.7761551,24.8382486 74.7207807,26.8609069 77.3367357,26.8609069 C78.6855875,26.8609069 79.8746579,26.2465538 80.4691931,25.6718365 L80.4691931,23.6293603 L76.5043864,23.6293603 L76.5043864,21.5868841 L82.7693012,21.5868841 L82.7693012,26.5240036 C81.4811416,27.9719446 79.617026,28.9430188 77.3367357,28.9430188 C73.4895974,28.9430188 70.3967757,26.2279746 70.3967757,22.0835687 Z M85.6379336,28.6853868 L85.6379336,15.4606942 L94.6984026,15.4606942 L94.6984026,17.504409 L87.956621,17.504409 L87.956621,20.9130775 L94.5596777,20.9130775 L94.5596777,22.9555537 L87.956621,22.9555537 L87.956621,26.6429106 L94.6984026,26.6429106 L94.6984026,28.6853868 L85.6379336,28.6853868 Z M101.116906,28.6853868 L101.116906,17.504409 L97.1124632,17.504409 L97.1124632,15.4606942 L107.441274,15.4606942 L107.441274,17.504409 L103.436832,17.504409 L103.436832,28.6853868 L101.116906,28.6853868 Z M115.503419,15.4606942 L117.822107,15.4606942 L117.822107,28.6853868 L115.503419,28.6853868 L115.503419,15.4606942 Z M124.282723,28.6853868 L124.282723,17.504409 L120.27828,17.504409 L120.27828,15.4606942 L130.607091,15.4606942 L130.607091,17.504409 L126.602648,17.504409 L126.602648,28.6853868 L124.282723,28.6853868 Z M138.094519,22.0835687 C138.094519,18.1373412 140.888834,15.2426979 144.856118,15.2426979 C148.799868,15.2426979 151.616479,18.1373412 151.616479,22.0835687 C151.616479,26.0285576 148.799868,28.9232009 144.856118,28.9232009 C140.888834,28.9232009 138.094519,26.0285576 138.094519,22.0835687 Z M149.2371,22.0835687 C149.2371,19.3474681 147.511709,17.3062306 144.856118,17.3062306 C142.178232,17.3062306 140.473898,19.3474681 140.473898,22.0835687 C140.473898,24.7986129 142.178232,26.8609069 144.856118,26.8609069 C147.511709,26.8609069 149.2371,24.7986129 149.2371,22.0835687 Z M163.544342,28.6853868 L156.644017,19.2285611 L156.644017,28.6853868 L154.32533,28.6853868 L154.32533,15.4606942 L156.70471,15.4606942 L163.46507,24.6214909 L163.46507,15.4606942 L165.784996,15.4606942 L165.784996,28.6853868 L163.544342,28.6853868 Z" id="get-it-on" fill="#FFFFFF"></path>
            </g>
        </g>
    </g>
</svg>