<svg width="243px" height="64px" viewBox="0 0 943 214" version="1.1" xmlns="http://www.w3.org/2000/svg" xmlns:xlink="http://www.w3.org/1999/xlink">
          <g id="Page-1" stroke="none" stroke-width="1" fill="none" fill-rule="evenodd">
              <g id="Logo_akolade" transform="translate(-88.000000, -149.000000)">
                  <path d="M407.281385,362.52381 C399.050464,362.52381 392.445912,360.101034 387.467532,355.255411 C382.489153,350.409788 380,343.805237 380,335.441558 L380,325.883117 C380,317.386682 382.953794,310.616187 388.861472,305.571429 C394.769149,300.52667 403.564155,298.004329 415.246753,298.004329 L442.528139,298.004329 L442.528139,290.636364 C442.528139,287.05193 441.930742,284.230891 440.735931,282.17316 C439.54112,280.11543 437.284288,278.58875 433.965368,277.593074 C430.646448,276.597398 425.73452,276.099567 419.229437,276.099567 L387.168831,276.099567 L387.168831,258.974026 C400.311754,254.991322 414.582896,253 429.982684,253 C444.054904,253 454.575723,255.655096 461.545455,260.965368 C468.515186,266.27564 472,275.502099 472,288.645022 L472,361.329004 L448.701299,361.329004 L443.922078,349.978355 C442.461753,351.43868 439.873034,353.164492 436.155844,355.155844 C432.438654,357.147196 428.024557,358.873009 422.91342,360.333333 C417.802283,361.793658 412.591657,362.52381 407.281385,362.52381 Z M422.614719,342.012987 C425.668125,342.012987 429.451637,341.316024 433.965368,339.922078 C438.479099,338.528132 441.333327,337.499282 442.528139,336.835498 L442.528139,311.943723 L424.606061,313.138528 C414.516544,313.935069 409.471861,318.315977 409.471861,326.281385 L409.471861,330.662338 C409.471861,338.229475 413.85277,342.012987 422.614719,342.012987 Z" id="a" fill="#2478FF"></path>
                  <polygon id="k" fill="#2478FF" points="480 210 509.6 210 509.6 292.4 510.2 292.4 533.8 255.2 563.8 255.2 532.2 305.8 567 362.6 537 362.6 509.8 319 509.6 362.6 480 362.6"></polygon>
                  <path d="M619.900609,363 C607.841049,363 598.299562,361.315471 591.275862,357.946364 C584.252162,354.577256 579.116987,348.962161 575.870183,341.100909 C572.623378,333.239658 571,322.372797 571,308.5 C571,294.098716 572.623378,282.967615 575.870183,275.106364 C579.116987,267.245112 584.252162,261.762137 591.275862,258.657273 C598.299562,255.552409 607.841049,254 619.900609,254 C632.092691,254 641.700438,255.618469 648.724138,258.855455 C655.747838,262.09244 660.883013,267.641476 664.129817,275.502727 C667.376622,283.363979 669,294.36296 669,308.5 C669,322.63704 667.409752,333.636021 664.229209,341.497273 C661.048666,349.358524 655.946621,354.90756 648.922921,358.144545 C641.899221,361.381531 632.225214,363 619.900609,363 Z M619.900609,339.614545 C625.068991,339.614545 628.978351,338.920916 631.628803,337.533636 C634.279256,336.146357 636.267066,333.239719 637.592292,328.813636 C638.917518,324.387554 639.580122,317.616409 639.580122,308.5 C639.580122,299.383591 638.917518,292.612446 637.592292,288.186364 C636.267066,283.760281 634.279256,280.853643 631.628803,279.466364 C628.978351,278.079084 625.068991,277.385455 619.900609,277.385455 C614.864748,277.385455 611.021649,278.079084 608.371197,279.466364 C605.720744,280.853643 603.732934,283.760281 602.407708,288.186364 C601.082482,292.612446 600.419878,299.383591 600.419878,308.5 C600.419878,317.616409 601.082482,324.387554 602.407708,328.813636 C603.732934,333.239719 605.720744,336.146357 608.371197,337.533636 C611.021649,338.920916 614.864748,339.614545 619.900609,339.614545 Z" id="o" fill="#2478FF"></path>
                  <path d="M710.6,363 C699.26661,363 690.833361,360.166695 685.3,354.5 C679.766639,348.833305 677,340.00006 677,328 L677,210 L706.6,210 L706.6,323.6 C706.6,329.333362 707.466658,333.433321 709.2,335.9 C710.933342,338.366679 713.79998,339.866664 717.8,340.4 L726,341.6 L726,363 L710.6,363 Z" id="l" fill="#2478FF"></path>
                  <path d="M872.163934,363 C859.310045,363 849.736029,358.821888 843.441598,350.46554 C837.147168,342.109191 834,328.447429 834,309.479844 C834,295.950518 835.225739,285.140483 837.677254,277.049415 C840.128769,268.958347 844.26978,262.989616 850.10041,259.143043 C855.93104,255.29647 863.948036,253.373212 874.151639,253.373212 C882.897585,253.373212 891.97468,255.031193 901.383197,258.347204 L901.383197,210 L931,210 L931,361.806242 L906.153689,361.806242 L901.383197,351.659298 C897.672796,354.842669 893.167376,357.528598 887.866803,359.717165 C882.56623,361.905733 877.331993,363 872.163934,363 Z M882.5,339.323797 C888.860688,339.323797 895.155024,337.33422 901.383197,333.355007 L901.383197,279.635891 C897.937824,278.309486 894.856912,277.281538 892.140369,276.552016 C889.423825,275.822493 886.607938,275.457737 883.692623,275.457737 C878.524564,275.457737 874.516066,276.353047 871.667008,278.143693 C868.81795,279.934339 866.730881,283.183982 865.405738,287.892718 C864.080594,292.601454 863.418033,299.332856 863.418033,308.087126 C863.418033,316.443475 864.047466,322.843281 865.306352,327.286736 C866.565239,331.730191 868.552924,334.847195 871.269467,336.637841 C873.986011,338.428487 877.729484,339.323797 882.5,339.323797 Z" id="d" fill="#2478FF"></path>
                  <path d="M987.4,363 C975.266606,363 965.733368,361.400016 958.8,358.2 C951.866632,354.999984 946.833349,349.466706 943.7,341.6 C940.566651,333.733294 939,322.666738 939,308.4 C939,293.73326 940.466652,282.433373 943.4,274.5 C946.333348,266.566627 951.166633,261.000016 957.9,257.8 C964.633367,254.599984 974.133272,253 986.4,253 C997.333388,253 1005.9333,254.066656 1012.2,256.2 C1018.4667,258.333344 1023.03332,262.06664 1025.9,267.4 C1028.76668,272.73336 1030.2,280.266618 1030.2,290 C1030.2,300.400052 1027.23336,307.799978 1021.3,312.2 C1015.36664,316.600022 1006.73339,318.8 995.4,318.8 L968.4,318.8 C968.666668,324.533362 969.533326,328.966651 971,332.1 C972.466674,335.233349 975.066648,337.499993 978.8,338.9 C982.533352,340.300007 987.999964,341 995.2,341 L1026.6,341 L1026.6,358.4 C1019.5333,359.866674 1013.13336,360.999996 1007.4,361.8 C1001.66664,362.600004 995.000038,363 987.4,363 Z M992.4,301.2 C996.533354,301.2 999.499991,300.366675 1001.3,298.7 C1003.10001,297.033325 1004,294.20002 1004,290.2 C1004,284.333304 1002.66668,280.233345 1000,277.9 C997.33332,275.566655 992.800032,274.4 986.4,274.4 C981.73331,274.4 978.100013,275.166659 975.5,276.7 C972.899987,278.233341 971.000006,280.933314 969.8,284.8 C968.599994,288.666686 968,294.133298 968,301.2 L992.4,301.2 Z" id="e" fill="#2478FF"></path>
                  <path d="M761.281385,363 C753.050464,363 746.445912,360.566691 741.467532,355.7 C736.489153,350.833309 734,344.200042 734,335.8 L734,326.2 C734,317.666624 736.953794,310.866692 742.861472,305.8 C748.769149,300.733308 757.564155,298.2 769.246753,298.2 L796.528139,298.2 L796.528139,290.8 C796.528139,287.199982 795.930742,284.366677 794.735931,282.3 C793.54112,280.233323 791.284288,278.700005 787.965368,277.7 C784.646448,276.699995 779.73452,276.2 773.229437,276.2 L741.168831,276.2 L741.168831,259 C754.311754,254.99998 768.582896,253 783.982684,253 C798.054904,253 808.575723,255.66664 815.545455,261 C822.515186,266.33336 826,275.599934 826,288.8 L826,361.8 L802.701299,361.8 L797.922078,350.4 C796.461753,351.866674 793.873034,353.59999 790.155844,355.6 C786.438654,357.60001 782.024557,359.333326 776.91342,360.8 C771.802283,362.266674 766.591657,363 761.281385,363 Z M776.614719,342.4 C779.668125,342.4 783.451637,341.700007 787.965368,340.3 C792.479099,338.899993 795.333327,337.86667 796.528139,337.2 L796.528139,312.2 L778.606061,313.4 C768.516544,314.200004 763.471861,318.59996 763.471861,326.6 L763.471861,331 C763.471861,338.600038 767.85277,342.4 776.614719,342.4 Z" id="a" fill="#2478FF"></path>
                  <g id="Group" transform="translate(88.000000, 149.000000)">
                      <polygon id="Line-4" fill="#185DD5" points="166.142988 131.253332 134.335296 82.7744302 85.0526875 82.7744302 53.8667491 131.253332"></polygon>
                      <polygon id="Line-4" fill="#185DD5" points="110.224383 213.664577 77.9930458 164.334576 32.6894071 164.334576 0.313355625 213.664577"></polygon>
                      <polygon id="Line-4" fill="#2478FF" points="212.176819 213.664577 275.705681 213.664577 138.50426 0.260323594 107.318322 48.7392252"></polygon>
                      <polygon id="Line-4" fill="#2478FF" points="107.341613 213.664577 169.797543 213.664577 85.0526875 82.7744302 53.8667491 131.253332"></polygon>
                      <polygon id="Line-4" fill="#2478FF" points="64.9769367 213.664577 32.6894071 164.334576 0.313355625 213.664577"></polygon>
                  </g>
              </g>
          </g>
      </svg>
